<?xml version="1.0" encoding="UTF-8" ?>
<!DOCTYPE svg PUBLIC "-//W3C//DTD SVG 1.1//EN" "http://www.w3.org/Graphics/SVG/1.1/DTD/svg11.dtd">
<svg width="1024pt" height="512pt" viewBox="0 0 1024 512" version="1.1" xmlns="http://www.w3.org/2000/svg">
<path fill="#ffffff" d=" M 0.00 0.00 L 1024.00 0.00 L 1024.00 512.00 L 0.00 512.00 L 0.00 0.00 Z" />
<path fill="#e7d928" d=" M 848.42 48.67 C 868.76 47.01 889.54 48.53 909.04 54.83 C 941.27 65.01 968.74 87.68 987.37 115.60 C 1004.98 142.01 1012.18 174.52 1009.83 205.99 C 1008.51 227.02 1002.59 247.82 992.15 266.16 C 978.87 289.29 959.46 308.89 936.54 322.51 C 919.66 332.44 900.60 338.55 881.14 340.63 C 849.56 344.11 816.52 338.44 789.17 321.83 C 785.38 319.77 782.09 316.87 778.24 314.95 C 747.95 316.04 717.65 317.20 687.36 318.33 C 700.10 294.30 712.83 270.27 725.47 246.18 C 717.97 226.07 715.54 204.27 717.05 182.92 C 718.25 166.18 722.22 149.60 729.19 134.30 C 736.64 117.83 747.45 102.98 760.33 90.34 C 772.07 78.65 785.65 68.74 800.63 61.62 C 815.60 54.44 831.91 50.21 848.42 48.67 Z" />
<path fill="#8fc445" d=" M 392.27 79.26 C 406.38 77.02 421.64 80.11 432.91 89.16 C 445.74 99.28 452.57 115.25 454.86 131.10 C 457.21 149.17 455.47 168.40 446.58 184.58 C 440.02 196.76 428.60 206.47 415.07 209.84 C 402.27 212.98 388.10 211.98 376.43 205.56 C 363.57 198.68 354.82 185.85 350.56 172.15 C 345.93 157.34 345.53 141.34 348.45 126.16 C 351.58 110.77 359.39 95.55 372.82 86.76 C 378.65 82.87 385.34 80.30 392.27 79.26 Z" />
<path fill="#8fc445" d=" M 26.89 80.62 C 43.93 80.54 60.98 80.62 78.02 80.58 C 87.72 80.40 98.01 82.09 105.83 88.22 C 112.05 92.82 115.73 100.22 116.63 107.80 C 117.57 115.00 117.26 122.90 113.15 129.14 C 110.07 133.75 105.63 137.29 100.79 139.93 C 108.55 142.22 115.48 147.54 119.05 154.87 C 123.16 162.89 123.01 172.34 121.33 180.98 C 119.83 188.86 115.57 196.30 109.04 201.06 C 100.45 207.44 89.45 209.44 78.97 209.50 C 61.60 209.48 44.24 209.55 26.88 209.46 C 27.30 193.30 26.63 177.14 27.06 160.98 C 26.75 134.19 27.34 107.41 26.89 80.62 Z" />
<path fill="#8fc445" d=" M 138.41 209.52 C 138.42 166.54 138.41 123.56 138.41 80.58 C 166.08 80.60 193.76 80.59 221.43 80.59 C 221.42 86.85 221.42 93.12 221.43 99.39 C 200.19 99.40 178.95 99.38 157.70 99.40 C 157.72 110.02 157.70 120.64 157.71 131.26 C 170.05 131.26 182.39 131.27 194.73 131.25 C 194.72 137.52 194.76 143.80 194.70 150.07 C 182.37 150.07 170.04 150.07 157.71 150.07 C 157.71 163.61 157.71 177.15 157.71 190.70 C 179.87 190.69 202.03 190.69 224.19 190.69 C 224.20 196.96 224.20 203.24 224.19 209.51 C 195.60 209.50 167.00 209.48 138.41 209.52 Z" />
<path fill="#8fc445" d=" M 229.48 80.58 C 237.03 80.59 244.59 80.60 252.15 80.57 C 263.57 100.69 275.13 120.75 285.59 141.37 C 295.84 120.62 307.73 100.76 319.05 80.60 C 326.48 80.58 333.90 80.59 341.33 80.59 C 326.18 106.04 311.13 131.55 295.99 157.00 C 295.18 158.15 295.13 159.58 295.14 160.94 C 295.19 177.12 295.15 193.30 295.16 209.48 C 288.68 209.52 282.20 209.48 275.72 209.51 C 275.60 192.49 275.97 175.43 275.55 158.43 C 260.41 132.37 244.84 106.53 229.48 80.58 Z" />
<path fill="#8fc445" d=" M 470.36 209.52 C 470.33 166.54 470.36 123.56 470.35 80.58 C 476.90 80.59 483.46 80.59 490.02 80.59 C 501.48 98.94 512.90 117.31 524.35 135.67 C 532.89 149.50 541.77 163.13 549.66 177.35 C 549.39 145.10 549.51 112.84 549.48 80.59 C 555.76 80.59 562.04 80.59 568.32 80.58 C 568.32 123.56 568.32 166.53 568.32 209.51 C 562.18 209.50 556.05 209.49 549.92 209.51 C 537.91 190.71 525.97 171.85 513.99 153.03 C 505.58 139.67 496.88 126.49 488.86 112.89 C 489.41 145.08 489.07 177.29 489.16 209.49 C 482.89 209.52 476.63 209.48 470.36 209.52 Z" />
<path fill="#8fc445" d=" M 588.88 80.60 C 601.23 80.60 613.59 80.55 625.95 80.62 C 641.59 81.01 657.97 85.43 669.38 96.67 C 682.13 109.13 687.22 127.50 686.81 144.94 C 687.24 161.96 682.42 179.83 670.26 192.22 C 658.85 204.09 642.08 209.21 625.95 209.48 C 613.59 209.53 601.23 209.49 588.88 209.50 C 588.88 166.53 588.87 123.56 588.88 80.60 Z" />
<path fill="#ffffff" d=" M 850.50 90.80 C 871.53 88.53 893.46 91.67 912.20 101.81 C 938.54 116.20 959.40 141.66 965.68 171.30 C 970.48 194.21 968.44 218.90 958.17 240.09 C 943.88 268.90 916.33 291.67 884.40 297.57 C 868.69 300.47 852.33 300.16 836.81 296.32 C 820.38 292.27 805.21 283.68 792.87 272.15 C 780.95 261.20 771.19 247.74 765.43 232.56 C 758.23 213.65 756.99 192.69 760.85 172.90 C 766.89 141.85 788.88 115.11 816.72 100.73 C 827.26 95.42 838.78 92.13 850.50 90.80 Z" />
<path fill="#ffffff" d=" M 45.26 98.29 C 56.84 98.32 68.42 98.28 80.00 98.31 C 84.69 98.32 89.87 99.17 93.24 102.74 C 98.13 108.09 98.99 116.50 96.01 122.99 C 93.40 128.62 87.08 131.62 81.08 131.57 C 69.14 131.63 57.19 131.56 45.25 131.60 C 45.29 120.49 45.27 109.39 45.26 98.29 Z" />
<path fill="#ffffff" d=" M 393.47 98.67 C 403.90 96.65 415.87 98.53 423.56 106.37 C 432.53 115.44 435.51 128.64 436.02 141.00 C 436.45 153.24 435.15 166.12 428.86 176.89 C 425.00 183.63 418.61 189.05 411.00 190.96 C 400.12 193.72 387.27 192.16 379.04 183.97 C 370.20 175.08 367.07 162.18 366.46 150.02 C 365.90 136.87 367.27 122.85 374.63 111.57 C 378.81 104.92 385.75 100.12 393.47 98.67 Z" />
<path fill="#ffffff" d=" M 608.25 99.39 C 620.69 99.65 633.84 98.01 645.46 103.51 C 655.20 107.72 662.28 116.83 664.89 127.01 C 668.00 139.02 667.98 151.90 664.68 163.86 C 661.93 173.94 654.69 182.78 644.99 186.86 C 633.46 192.11 620.53 190.40 608.26 190.70 C 608.27 160.26 608.29 129.83 608.25 99.39 Z" />
<path fill="#ffffff" d=" M 45.28 149.13 C 57.20 149.18 69.11 149.10 81.03 149.16 C 87.05 149.16 93.45 150.84 97.66 155.37 C 102.68 160.48 103.75 168.25 102.72 175.07 C 101.93 180.38 99.28 185.77 94.56 188.61 C 90.20 191.18 85.01 191.78 80.04 191.78 C 68.45 191.79 56.86 191.76 45.27 191.79 C 45.28 177.57 45.27 163.35 45.28 149.13 Z" />
<path fill="#8fc445" d=" M 211.48 250.76 C 226.47 248.04 242.86 251.51 254.54 261.57 C 267.46 272.59 273.93 289.48 275.60 306.04 C 277.49 324.61 274.72 344.39 264.27 360.20 C 257.15 371.21 245.59 379.31 232.67 381.80 C 219.27 384.31 204.62 382.54 193.17 374.74 C 179.21 365.57 171.24 349.53 168.38 333.44 C 165.42 315.93 166.70 297.32 174.10 281.01 C 180.80 265.76 194.79 253.45 211.48 250.76 Z" />
<path fill="#8fc445" d=" M 540.43 252.59 C 551.94 248.86 564.61 249.07 576.13 252.65 C 585.04 255.60 592.97 261.00 599.78 267.38 C 595.28 272.01 590.73 276.60 586.21 281.20 C 580.58 275.53 573.47 271.13 565.52 269.74 C 558.44 268.53 550.86 268.24 544.07 270.91 C 537.02 273.69 532.74 282.22 535.32 289.47 C 537.19 295.04 542.91 297.77 547.92 299.95 C 561.34 305.37 576.02 307.81 588.53 315.40 C 596.00 319.91 601.95 327.37 603.36 336.12 C 605.20 347.11 603.38 359.29 596.22 368.14 C 590.07 375.80 580.55 379.90 571.09 381.65 C 559.26 383.57 546.78 383.52 535.42 379.36 C 525.81 375.82 517.21 369.75 510.43 362.11 C 515.07 357.66 519.65 353.13 524.27 348.65 C 533.18 358.06 545.91 364.32 559.04 363.86 C 565.98 363.72 573.56 362.83 579.08 358.20 C 583.99 354.14 585.37 347.09 584.02 341.09 C 582.65 335.69 577.66 332.37 572.94 330.09 C 558.63 323.38 542.27 321.68 528.75 313.16 C 522.29 309.22 517.38 302.70 515.97 295.20 C 514.36 286.54 514.72 277.06 519.22 269.27 C 523.65 261.10 531.69 255.38 540.43 252.59 Z" />
<path fill="#8fc445" d=" M 20.23 251.86 C 26.70 251.86 33.18 251.87 39.66 251.86 C 44.77 278.05 49.64 304.29 54.66 330.50 C 55.74 337.06 57.38 343.52 58.01 350.14 C 61.59 332.24 66.53 314.65 70.89 296.92 C 74.81 281.89 78.26 266.73 82.48 251.78 C 87.88 252.31 93.70 251.10 98.83 252.39 C 104.20 272.53 109.04 292.82 114.21 313.02 C 117.17 325.17 120.61 337.22 122.92 349.53 C 124.24 344.98 124.56 340.23 125.47 335.61 C 130.67 307.72 135.97 279.86 141.16 251.97 C 147.40 251.75 153.65 251.91 159.90 251.86 C 151.27 294.88 142.40 337.84 133.59 380.82 C 127.08 380.76 120.56 380.84 114.04 380.76 C 106.15 347.40 97.82 314.14 90.16 280.72 C 88.67 289.97 86.31 299.04 84.02 308.12 C 77.92 332.34 71.82 356.57 65.71 380.79 C 59.32 380.81 52.93 380.77 46.54 380.82 C 37.74 337.84 28.94 294.86 20.23 251.86 Z" />
<path fill="#8fc445" d=" M 290.65 251.87 C 308.44 251.85 326.22 251.88 344.01 251.85 C 354.26 251.74 365.02 253.33 373.63 259.27 C 381.93 264.78 387.18 274.22 388.25 284.05 C 389.24 293.64 388.38 303.92 383.28 312.33 C 378.31 320.63 369.50 325.87 360.31 328.26 C 369.06 345.78 377.80 363.30 386.58 380.82 C 379.15 380.77 371.72 380.81 364.29 380.79 C 355.73 363.82 347.26 346.79 338.69 329.82 C 329.00 329.80 319.31 329.81 309.62 329.81 C 309.61 346.81 309.62 363.81 309.61 380.81 C 303.29 380.79 296.96 380.78 290.64 380.82 C 290.64 337.83 290.61 294.85 290.65 251.87 Z" />
<path fill="#8fc445" d=" M 405.56 251.86 C 416.69 251.86 427.82 251.87 438.95 251.85 C 453.46 251.90 468.65 254.68 480.57 263.43 C 493.80 272.99 501.24 288.95 502.88 304.91 C 504.86 323.47 502.69 343.72 490.91 358.91 C 480.27 373.11 462.39 380.09 445.05 380.71 C 431.88 380.94 418.72 380.69 405.56 380.84 C 405.53 337.84 405.51 294.85 405.56 251.86 Z" />
<path fill="#ffffff" d=" M 216.38 269.57 C 225.94 268.37 236.49 270.42 243.55 277.38 C 252.21 285.87 255.44 298.32 256.22 310.09 C 256.92 323.27 255.81 337.28 248.81 348.82 C 244.91 355.42 238.51 360.56 231.01 362.37 C 220.07 365.08 207.17 363.35 199.03 354.98 C 190.11 345.74 187.16 332.45 186.69 319.99 C 186.30 306.84 187.94 292.78 195.73 281.76 C 200.42 274.93 208.16 270.45 216.38 269.57 Z" />
<path fill="#ffffff" d=" M 309.62 270.19 C 322.44 270.25 335.26 270.17 348.08 270.23 C 354.94 270.24 362.26 273.01 366.05 279.01 C 369.77 285.15 369.88 293.03 367.73 299.74 C 365.10 307.42 356.70 311.40 349.01 311.54 C 335.87 311.64 322.74 311.55 309.60 311.58 C 309.63 297.78 309.60 283.99 309.62 270.19 Z" />
<path fill="#ffffff" d=" M 424.83 270.73 C 436.54 270.95 448.76 269.51 459.92 273.92 C 468.37 277.05 475.44 283.61 479.14 291.83 C 483.42 301.25 484.18 311.86 483.59 322.07 C 482.91 331.65 480.41 341.57 474.03 349.02 C 468.26 355.94 459.62 359.99 450.82 361.32 C 442.21 362.56 433.50 361.99 424.84 362.10 C 424.82 331.64 424.83 301.18 424.83 270.73 Z" />
<path fill="#666666" d=" M 32.33 420.30 C 38.60 416.53 46.82 418.40 52.02 423.17 C 50.74 424.50 49.45 425.83 48.17 427.17 C 44.92 424.34 40.27 422.70 36.09 424.32 C 33.32 425.27 32.19 429.47 34.76 431.27 C 39.41 434.41 45.61 434.34 50.02 437.97 C 55.29 442.28 53.77 451.87 47.67 454.68 C 40.59 458.02 31.67 456.26 26.35 450.52 C 27.65 449.20 28.95 447.90 30.26 446.60 C 34.07 450.29 39.92 452.13 44.96 449.96 C 47.89 448.65 48.63 443.98 45.83 442.16 C 41.10 439.07 34.87 439.16 30.45 435.49 C 25.98 431.46 27.14 423.22 32.33 420.30 Z" />
<path fill="#666666" d=" M 405.08 424.06 C 410.72 416.00 424.49 416.47 429.41 425.09 C 427.81 426.11 426.21 427.12 424.60 428.14 C 421.43 422.81 412.94 422.25 409.41 427.45 C 406.00 432.73 406.04 439.85 408.41 445.54 C 410.57 450.98 418.44 452.52 422.70 448.71 C 424.56 447.15 424.77 444.61 425.32 442.42 C 423.24 442.39 421.18 442.39 419.11 442.37 C 419.12 440.61 419.12 438.85 419.14 437.09 C 423.00 437.10 426.86 437.10 430.72 437.08 C 430.79 441.81 430.98 447.00 427.95 450.98 C 422.59 458.57 409.73 457.89 404.78 450.17 C 399.80 442.50 399.88 431.61 405.08 424.06 Z" />
<path fill="#666666" d=" M 600.82 420.80 C 607.45 416.22 617.60 418.02 621.80 425.08 C 620.17 426.12 618.54 427.16 616.92 428.21 C 615.45 426.67 614.12 424.70 611.93 424.21 C 607.44 422.74 602.12 425.11 600.58 429.65 C 598.57 435.22 598.54 442.04 601.78 447.17 C 605.41 452.54 614.13 451.66 617.37 446.29 C 618.86 447.29 620.36 448.30 621.86 449.32 C 617.78 456.39 607.66 458.48 600.98 453.94 C 595.54 450.24 593.41 443.30 593.53 436.99 C 593.59 430.96 595.65 424.37 600.82 420.80 Z" />
<path fill="#666666" d=" M 640.38 418.63 C 644.84 417.77 649.79 418.69 653.20 421.82 C 657.50 425.58 659.13 431.49 659.25 437.03 C 659.26 442.61 657.74 448.60 653.54 452.53 C 647.84 458.01 637.59 457.52 632.55 451.38 C 627.96 445.90 627.36 438.18 628.65 431.41 C 629.83 425.46 634.19 419.79 640.38 418.63 Z" />
<path fill="#666666" d=" M 709.03 419.97 C 715.27 416.65 723.08 418.54 728.13 423.18 C 726.86 424.50 725.57 425.82 724.31 427.15 C 720.89 424.24 715.82 422.48 711.58 424.62 C 708.92 425.97 708.63 430.26 711.40 431.66 C 716.02 434.33 721.81 434.50 726.05 437.91 C 731.42 442.20 729.91 451.95 723.69 454.72 C 716.62 458.02 707.76 456.21 702.45 450.52 C 703.74 449.21 705.05 447.91 706.36 446.61 C 709.54 449.45 713.67 451.48 718.06 450.75 C 720.68 450.70 723.58 448.90 723.67 446.05 C 724.02 443.93 722.47 442.13 720.64 441.36 C 716.05 439.11 710.54 438.78 706.51 435.45 C 701.88 431.21 703.43 422.64 709.03 419.97 Z" />
<path fill="#666666" d=" M 948.47 420.40 C 954.74 416.51 963.10 418.35 968.33 423.19 C 967.04 424.52 965.74 425.85 964.47 427.18 C 961.20 424.35 956.52 422.67 952.32 424.34 C 949.35 425.35 948.51 429.93 951.41 431.55 C 956.02 434.33 961.88 434.45 966.17 437.87 C 971.40 442.00 970.22 451.35 964.42 454.42 C 957.30 458.13 948.01 456.38 942.61 450.46 C 943.89 449.18 945.20 447.90 946.50 446.63 C 948.97 448.53 951.64 450.56 954.89 450.76 C 957.76 450.97 961.37 450.89 963.17 448.23 C 964.26 446.29 964.10 443.35 962.04 442.11 C 957.11 438.92 950.44 439.17 946.12 434.91 C 942.53 430.66 943.62 423.27 948.47 420.40 Z" />
<path fill="#666666" d=" M 61.36 418.85 C 66.92 418.94 72.49 418.67 78.05 418.96 C 82.07 419.15 86.09 421.46 87.65 425.28 C 89.70 430.42 88.61 437.42 83.45 440.31 C 78.33 443.00 72.30 441.85 66.76 442.07 C 66.75 446.62 66.75 451.17 66.77 455.72 C 64.96 455.72 63.14 455.73 61.33 455.74 C 61.36 443.44 61.31 431.14 61.36 418.85 Z" />
<path fill="#666666" d=" M 95.71 418.85 C 103.62 418.84 111.52 418.86 119.43 418.84 C 119.44 420.66 119.45 422.48 119.46 424.30 C 113.39 424.29 107.33 424.30 101.26 424.29 C 101.27 427.32 101.27 430.35 101.26 433.38 C 104.77 433.38 108.29 433.38 111.81 433.39 C 111.80 435.16 111.80 436.94 111.80 438.72 C 108.28 438.71 104.77 438.71 101.26 438.71 C 101.28 442.60 101.28 446.48 101.26 450.37 C 107.60 450.37 113.93 450.37 120.27 450.37 C 120.26 452.15 120.26 453.93 120.26 455.72 C 112.07 455.72 103.88 455.71 95.70 455.73 C 95.70 443.44 95.67 431.14 95.71 418.85 Z" />
<path fill="#666666" d=" M 128.15 418.85 C 136.01 418.85 143.87 418.85 151.74 418.84 C 151.75 420.66 151.77 422.47 151.79 424.30 C 145.72 424.29 139.66 424.31 133.60 424.27 C 133.58 427.31 133.58 430.35 133.59 433.39 C 137.13 433.38 140.67 433.38 144.21 433.39 C 144.21 435.16 144.21 436.93 144.21 438.71 C 140.67 438.71 137.13 438.71 133.59 438.71 C 133.59 442.60 133.59 446.49 133.59 450.38 C 139.92 450.36 146.26 450.39 152.59 450.35 C 152.59 452.14 152.59 453.94 152.59 455.74 C 144.42 455.69 136.26 455.74 128.09 455.71 C 128.17 443.42 128.06 431.13 128.15 418.85 Z" />
<path fill="#666666" d=" M 162.80 423.82 C 168.56 415.97 182.03 416.62 186.95 425.09 C 185.32 426.13 183.69 427.17 182.06 428.21 C 180.42 426.36 178.70 424.18 176.03 423.97 C 171.49 422.97 166.74 425.86 165.47 430.30 C 163.77 436.11 163.62 443.36 167.79 448.19 C 171.91 452.55 179.48 451.12 182.62 446.28 C 184.08 447.32 185.57 448.35 187.04 449.40 C 182.26 457.53 169.52 458.80 163.42 451.56 C 157.15 443.91 157.06 431.79 162.80 423.82 Z" />
<path fill="#666666" d=" M 194.86 418.86 C 196.71 418.85 198.57 418.84 200.43 418.84 C 200.46 423.82 200.44 428.79 200.44 433.77 C 206.08 433.74 211.72 433.74 217.36 433.77 C 217.37 428.80 217.35 423.82 217.39 418.85 C 219.19 418.84 221.00 418.84 222.81 418.84 C 222.89 431.13 222.80 443.42 222.86 455.72 C 221.03 455.71 219.19 455.72 217.36 455.73 C 217.36 450.23 217.37 444.72 217.36 439.22 C 211.72 439.25 206.09 439.25 200.45 439.22 C 200.44 444.73 200.45 450.24 200.45 455.75 C 198.57 455.72 196.71 455.70 194.84 455.68 C 194.86 443.41 194.84 431.13 194.86 418.86 Z" />
<path fill="#666666" d=" M 248.47 425.94 C 248.58 421.54 252.90 418.48 257.03 418.40 C 261.21 417.85 265.18 419.59 268.64 421.76 C 267.76 423.21 266.88 424.67 266.01 426.13 C 263.06 424.27 259.57 422.74 256.03 423.70 C 253.16 424.71 253.75 428.65 255.41 430.50 C 259.12 435.18 262.91 439.80 266.80 444.34 C 267.65 442.31 268.47 440.27 269.27 438.23 C 270.95 438.71 272.62 439.21 274.30 439.71 C 273.23 442.79 271.90 445.79 270.21 448.59 C 272.14 450.96 274.09 453.32 276.01 455.71 C 273.88 455.71 271.74 455.71 269.61 455.71 C 268.71 454.61 267.81 453.51 266.92 452.42 C 262.29 456.22 255.68 457.56 250.10 455.15 C 245.65 453.26 243.91 447.66 245.24 443.26 C 246.19 439.60 249.53 437.38 252.48 435.39 C 250.37 432.67 247.96 429.62 248.47 425.94 Z" />
<path fill="#666666" d=" M 296.61 418.85 C 298.47 418.84 300.32 418.85 302.18 418.85 C 302.19 429.34 302.20 439.82 302.18 450.31 C 308.28 450.31 314.38 450.33 320.48 450.29 C 320.48 452.10 320.48 453.92 320.48 455.74 C 312.52 455.70 304.56 455.71 296.60 455.74 C 296.61 443.44 296.58 431.14 296.61 418.85 Z" />
<path fill="#666666" d=" M 325.52 455.71 C 330.01 443.45 334.35 431.13 338.84 418.86 C 340.73 418.84 342.62 418.83 344.53 418.82 C 349.20 431.05 353.50 443.43 358.08 455.70 C 356.08 455.69 354.10 455.70 352.12 455.69 C 351.11 452.82 350.10 449.95 349.13 447.07 C 344.22 447.29 339.22 446.69 334.37 447.28 C 333.11 450.01 332.31 452.92 331.28 455.75 C 329.36 455.73 327.43 455.72 325.52 455.71 Z" />
<path fill="#666666" d=" M 365.37 418.84 C 367.22 418.84 369.08 418.85 370.94 418.86 C 376.59 428.06 382.50 437.11 387.95 446.43 C 387.97 437.23 387.70 428.01 388.07 418.81 C 389.82 418.83 391.57 418.84 393.33 418.86 C 393.36 431.15 393.34 443.44 393.35 455.73 C 391.58 455.72 389.81 455.72 388.05 455.72 C 382.23 446.54 376.32 437.42 370.62 428.17 C 370.73 437.35 370.66 446.54 370.70 455.73 C 368.91 455.72 367.12 455.73 365.34 455.73 C 365.37 443.43 365.31 431.14 365.37 418.84 Z" />
<path fill="#666666" d=" M 438.35 441.06 C 438.29 433.65 438.31 426.25 438.36 418.84 C 440.16 418.83 441.96 418.84 443.77 418.85 C 443.88 426.24 443.70 433.64 443.84 441.03 C 443.91 444.60 445.19 448.76 448.81 450.20 C 451.79 451.15 455.46 451.06 457.95 448.96 C 460.16 447.00 460.67 443.87 460.73 441.06 C 460.78 433.66 460.70 426.25 460.75 418.85 C 462.60 418.84 464.45 418.84 466.31 418.85 C 466.28 426.55 466.42 434.26 466.26 441.96 C 466.16 447.28 463.75 453.16 458.48 455.21 C 453.65 456.95 447.67 456.89 443.45 453.67 C 439.69 450.69 438.38 445.68 438.35 441.06 Z" />
<path fill="#666666" d=" M 473.32 455.73 C 477.81 443.45 482.12 431.10 486.66 418.84 C 488.56 418.84 490.46 418.84 492.37 418.84 C 496.95 431.11 501.33 443.44 505.87 455.72 C 503.89 455.72 501.91 455.71 499.94 455.72 C 498.92 452.86 497.90 449.99 496.94 447.11 C 491.98 446.98 487.01 447.13 482.05 447.12 C 481.08 449.99 480.07 452.86 479.08 455.73 C 477.15 455.72 475.23 455.72 473.32 455.73 Z" />
<path fill="#666666" d=" M 515.15 424.12 C 520.77 416.00 534.58 416.46 539.54 425.09 C 537.93 426.11 536.32 427.12 534.72 428.15 C 531.56 422.81 523.08 422.24 519.54 427.43 C 516.13 432.67 516.16 439.75 518.48 445.42 C 520.57 450.93 528.41 452.51 532.75 448.80 C 534.65 447.22 534.90 444.64 535.45 442.41 C 533.37 442.38 531.29 442.39 529.22 442.38 C 529.23 440.61 529.23 438.84 529.25 437.08 C 533.11 437.10 536.98 437.10 540.84 437.09 C 540.91 441.85 541.08 447.10 538.00 451.07 C 532.58 458.58 519.81 457.85 514.88 450.14 C 509.92 442.49 510.00 431.65 515.15 424.12 Z" />
<path fill="#666666" d=" M 548.70 418.85 C 556.60 418.85 564.50 418.85 572.40 418.84 C 572.40 420.66 572.41 422.48 572.42 424.30 C 566.36 424.29 560.30 424.30 554.24 424.29 C 554.24 427.32 554.24 430.35 554.23 433.38 C 557.75 433.38 561.27 433.39 564.80 433.38 C 564.79 435.16 564.79 436.93 564.80 438.72 C 561.27 438.71 557.75 438.71 554.24 438.71 C 554.25 442.60 554.25 446.49 554.23 450.37 C 560.57 450.37 566.91 450.37 573.25 450.37 C 573.24 452.15 573.24 453.93 573.25 455.72 C 565.06 455.73 556.87 455.70 548.69 455.74 C 548.69 443.44 548.67 431.14 548.70 418.85 Z" />
<path fill="#666666" d=" M 667.11 418.87 C 668.88 418.84 670.66 418.81 672.45 418.79 C 678.35 427.90 684.14 437.10 689.62 446.48 C 689.68 437.27 689.58 428.07 689.65 418.86 C 691.38 418.84 693.13 418.82 694.88 418.80 C 695.37 431.09 694.95 443.40 695.09 455.70 C 693.27 455.69 691.46 455.70 689.65 455.69 C 684.00 446.46 677.96 437.48 672.37 428.21 C 672.41 437.39 672.44 446.57 672.39 455.76 C 670.60 455.73 668.82 455.71 667.05 455.69 C 667.13 443.41 667.02 431.14 667.11 418.87 Z" />
<path fill="#666666" d=" M 737.30 440.05 C 737.32 432.97 737.21 425.88 737.38 418.81 C 739.16 418.82 740.96 418.84 742.76 418.86 C 742.83 425.92 742.75 432.97 742.78 440.03 C 742.84 443.24 743.35 446.90 745.97 449.09 C 750.49 452.73 758.91 450.48 759.42 444.14 C 760.18 435.75 759.52 427.27 759.76 418.85 C 761.59 418.84 763.43 418.84 765.27 418.85 C 765.24 426.59 765.37 434.33 765.23 442.06 C 765.13 447.39 762.64 453.28 757.32 455.25 C 752.11 457.09 745.42 456.86 741.36 452.69 C 738.12 449.37 737.27 444.52 737.30 440.05 Z" />
<path fill="#666666" d=" M 774.55 418.84 C 776.40 418.84 778.27 418.85 780.13 418.86 C 780.14 429.34 780.16 439.83 780.13 450.31 C 786.22 450.31 792.32 450.33 798.42 450.30 C 798.41 452.11 798.41 453.92 798.42 455.74 C 790.46 455.70 782.50 455.70 774.54 455.74 C 774.54 443.44 774.52 431.14 774.55 418.84 Z" />
<path fill="#666666" d=" M 803.59 418.85 C 812.57 418.85 821.55 418.85 830.54 418.85 C 830.54 420.68 830.55 422.51 830.57 424.36 C 826.99 424.35 823.41 424.35 819.84 424.34 C 819.83 434.80 819.81 445.26 819.85 455.72 C 817.99 455.72 816.14 455.72 814.30 455.74 C 814.32 445.27 814.29 434.80 814.32 424.34 C 810.73 424.35 807.14 424.35 803.57 424.35 C 803.56 422.51 803.57 420.68 803.59 418.85 Z" />
<path fill="#666666" d=" M 835.41 455.72 C 839.91 443.45 844.22 431.11 848.75 418.85 C 850.63 418.84 852.53 418.83 854.44 418.82 C 859.07 431.07 863.40 443.43 867.97 455.71 C 865.98 455.71 864.00 455.71 862.03 455.72 C 861.01 452.84 860.00 449.98 859.01 447.10 C 854.05 447.14 849.10 446.98 844.16 447.11 C 843.20 450.00 842.17 452.87 841.16 455.75 C 839.23 455.72 837.32 455.72 835.41 455.72 Z" />
<path fill="#666666" d=" M 875.29 418.85 C 877.13 418.84 878.97 418.84 880.82 418.85 C 886.51 428.04 892.37 437.13 897.87 446.43 C 897.77 437.24 897.81 428.04 897.82 418.85 C 899.62 418.85 901.43 418.85 903.25 418.85 C 903.28 431.14 903.25 443.43 903.26 455.72 C 901.48 455.71 899.72 455.72 897.96 455.73 C 892.14 446.56 886.26 437.44 880.53 428.21 C 880.64 437.38 880.57 446.56 880.60 455.74 C 878.81 455.72 877.03 455.72 875.26 455.72 C 875.30 443.43 875.23 431.14 875.29 418.85 Z" />
<path fill="#666666" d=" M 910.51 418.85 C 919.49 418.84 928.48 418.86 937.47 418.84 C 937.47 420.68 937.48 422.51 937.50 424.36 C 933.90 424.35 930.31 424.35 926.71 424.35 C 926.73 434.81 926.70 445.27 926.73 455.73 C 924.89 455.72 923.05 455.72 921.23 455.72 C 921.26 445.27 921.22 434.81 921.25 424.36 C 917.66 424.35 914.07 424.34 910.48 424.36 C 910.49 422.52 910.49 420.68 910.51 418.85 Z" />
<path fill="#ffffff" d=" M 66.76 424.14 C 70.78 424.25 74.84 423.84 78.84 424.43 C 84.32 425.75 84.37 435.09 78.94 436.50 C 74.90 437.04 70.81 436.66 66.76 436.75 C 66.76 432.55 66.76 428.34 66.76 424.14 Z" />
<path fill="#ffffff" d=" M 641.19 424.12 C 644.83 423.17 649.17 424.45 651.20 427.75 C 653.70 431.64 653.88 436.55 653.32 441.02 C 652.82 444.73 650.91 448.69 647.25 450.16 C 643.78 451.35 639.41 450.91 636.91 448.00 C 633.63 444.19 633.29 438.74 633.86 433.96 C 634.34 429.75 636.68 425.06 641.19 424.12 Z" />
<path fill="#fefefe" d=" M 341.74 425.21 C 343.43 430.90 345.44 436.50 347.40 442.10 C 343.62 442.10 339.83 442.11 336.05 442.10 C 337.97 436.48 339.92 430.86 341.74 425.21 Z" />
<path fill="#fefefe" d=" M 489.28 425.22 C 491.35 430.79 493.22 436.44 495.09 442.09 C 491.35 442.11 487.62 442.11 483.90 442.09 C 485.62 436.44 487.93 430.98 489.28 425.22 Z" />
<path fill="#fefefe" d=" M 851.65 425.25 C 853.30 430.94 855.34 436.50 857.29 442.10 C 853.51 442.11 849.73 442.11 845.96 442.10 C 847.85 436.48 849.78 430.87 851.65 425.25 Z" />
<path fill="#fefefe" d=" M 250.46 445.01 C 250.85 442.14 253.58 440.64 255.69 439.10 C 258.35 442.27 261.07 445.39 263.63 448.66 C 260.83 450.53 257.40 452.07 254.00 450.92 C 251.46 450.30 249.93 447.51 250.46 445.01 Z" />
</svg>
